<?xml version="1.0" encoding="UTF-8"?>
<!DOCTYPE svg PUBLIC "-//W3C//DTD SVG 1.1//EN" "http://www.w3.org/Graphics/SVG/1.1/DTD/svg11.dtd">
<svg xmlns="http://www.w3.org/2000/svg" version="1.1" width="512px" height="512px" style="shape-rendering:geometricPrecision; text-rendering:geometricPrecision; image-rendering:optimizeQuality; fill-rule:evenodd; clip-rule:evenodd" xmlns:xlink="http://www.w3.org/1999/xlink">
<g><path style="opacity:0.988" fill="#8e8e8e" d="M 234.5,31.5 C 324.133,27.2338 393.966,61.9005 444,135.5C 477.658,191.117 487.658,250.783 474,314.5C 454.3,392.195 407.467,446.362 333.5,477C 326.778,480.21 320.112,480.21 313.5,477C 312.54,475.581 311.707,474.081 311,472.5C 310.948,444.799 310.281,417.132 309,389.5C 307.148,379.13 302.648,370.13 295.5,362.5C 362.95,356.056 396.95,319.056 397.5,251.5C 398.143,227.091 390.477,205.758 374.5,187.5C 381.292,167.687 380.792,148.02 373,128.5C 371.527,126.993 369.693,126.326 367.5,126.5C 353.662,128.502 340.662,133.002 328.5,140C 322.626,143.768 316.626,147.268 310.5,150.5C 273.667,141.175 236.833,141.175 200,150.5C 188.926,143.711 177.426,137.544 165.5,132C 157.164,128.414 148.498,126.747 139.5,127C 137.249,129.723 135.749,132.889 135,136.5C 131.972,147.319 130.972,158.319 132,169.5C 133.34,176.171 134.34,182.837 135,189.5C 123.584,202.721 116.584,218.054 114,235.5C 110.325,265.799 115.991,294.132 131,320.5C 145.151,339.01 163.651,351.177 186.5,357C 195.688,359.471 205.021,360.971 214.5,361.5C 214.082,364.439 212.582,366.772 210,368.5C 205.163,376.175 201.996,384.508 200.5,393.5C 184.548,401.227 168.548,401.393 152.5,394C 142.867,387.029 135.367,378.196 130,367.5C 120.932,355.88 109.098,350.713 94.5,352C 92.8198,352.347 91.8198,353.347 91.5,355C 92.0831,357.499 93.4164,359.499 95.5,361C 105,366.5 112.5,374 118,383.5C 121.807,391.919 125.807,400.253 130,408.5C 141.758,423.462 157.258,431.129 176.5,431.5C 184.54,430.739 192.54,429.739 200.5,428.5C 200.667,442.837 200.5,457.171 200,471.5C 198.235,477.39 194.235,480.057 188,479.5C 170.436,474.865 153.936,467.698 138.5,458C 61.9979,405.657 26.4979,332.824 32,239.5C 42.3168,151.909 86.8168,88.742 165.5,50C 187.739,40.5258 210.739,34.3591 234.5,31.5 Z"/></g>
</svg>
